<?xml version="1.0" encoding="UTF-8"?>
<svg width="24px" height="24px" viewBox="0 0 24 24" version="1.1" xmlns="http://www.w3.org/2000/svg" xmlns:xlink="http://www.w3.org/1999/xlink">
    <!-- Generator: Sketch 56.3 (81716) - https://sketch.com -->
    <title>Path</title>
    <desc>Created with Sketch.</desc>
    <g id="Page-1" stroke="none" stroke-width="1" fill="none" fill-rule="evenodd">
        <g id="add" transform="translate(1.000000, 0.000000)" fill="#FFFFFF" fill-rule="nonzero" stroke="#FFFFFF">
            <path d="M10.999773,0.9804085 C10.495013,0.9804085 9.990233,1.3179155 9.999803,1.9940805 L9.999803,10.9804085 L1.0137625,10.9804085 C0.4500125,10.972408 -0.0085875,11.432544 -0.000118231777,11.990174 C0.0091225,12.547812 0.4622525,12.987958 1.0137625,12.9804085 L9.999803,12.9804085 L9.999803,21.966736 C9.991803,22.530506 10.451933,22.989116 11.009543,22.9806467 C11.567163,22.971406 12.007293,22.518266 11.999743,21.966736 L11.999743,12.9804085 L20.985783,12.9804085 C22.338073,12.999508 22.338073,10.961268 20.985783,10.9804085 L11.999743,10.9804085 L11.999743,1.9940805 C12.009743,1.3179155 11.504543,0.9804085 10.999773,0.9804085 Z" id="Path"></path>
        </g>
    </g>
</svg>