<?xml version="1.0" encoding="UTF-8"?>
<svg width="26px" height="26px" viewBox="0 0 26 26" version="1.1" xmlns="http://www.w3.org/2000/svg" xmlns:xlink="http://www.w3.org/1999/xlink">
    <!-- Generator: Sketch 56.3 (81716) - https://sketch.com -->
    <title>Path</title>
    <desc>Created with Sketch.</desc>
    <g id="Page-1" stroke="none" stroke-width="1" fill="none" fill-rule="evenodd">
        <g id="noun_Close_2341442" fill="#FFFFFF" fill-rule="nonzero">
            <g id="Group" transform="translate(0.000000, 0.458350)">
                <path d="M2.36523027,0.320413831 C1.7196088,0.3208045 1.13851878,0.712117237 0.895399909,1.3102146 C0.652281036,1.90831196 0.795555796,2.59406964 1.25780433,3.0447952 L10.9838256,12.7708165 L1.25780433,22.4963208 C0.846807989,22.8954994 0.682664705,23.4850973 0.828260365,24.0392303 C0.973856026,24.5933633 1.40661966,25.026127 1.96075268,25.1717227 C2.51488571,25.3173183 3.10448364,25.1531751 3.5036622,24.7421787 L13.2291665,15.0161574 L22.9551878,24.7421787 C23.3535537,25.1566988 23.9448877,25.3234743 24.5011376,25.178187 C25.0573874,25.0328997 25.4916352,24.5982518 25.6364101,24.0418683 C25.7811851,23.4854849 25.613865,22.8943048 25.1989783,22.4963208 L15.473474,12.7708165 L25.1989783,3.0447952 C25.6677944,2.58822104 25.8084406,1.89076999 25.5532114,1.28818672 C25.2979821,0.685603451 24.699173,0.301354927 24.0450436,0.320413831 C23.6331552,0.333101726 23.2423367,0.50543991 22.9551878,0.801004632 L13.2291665,10.526509 L3.5036622,0.801004632 C3.20465678,0.493642803 2.79403736,0.320299181 2.36523027,0.320413831 Z" id="Path"></path>
            </g>
        </g>
    </g>
</svg>