<?xml version="1.0" encoding="UTF-8"?>
<svg width="82px" height="54px" viewBox="0 0 82 54" version="1.1" xmlns="http://www.w3.org/2000/svg" xmlns:xlink="http://www.w3.org/1999/xlink">
    <!-- Generator: Sketch 56.3 (81716) - https://sketch.com -->
    <title>Path</title>
    <desc>Created with Sketch.</desc>
    <g id="Page-1" stroke="none" stroke-width="1" fill="none" fill-rule="evenodd">
        <g id="noun_checkmark_1296066" transform="translate(-9.000000, -1.000000)" fill="#FFFFFF" fill-rule="nonzero">
            <g id="Group" transform="translate(8.000000, 0.637820)">
                <path d="M80.800742,0.35357 C80.3528588,0.401993202 79.9344366,0.600193194 79.613242,0.91607 L27.832042,49.7599 L4.207042,31.7911 C3.63764997,31.3556645 2.87920797,31.2570726 2.21741379,31.5324629 C1.55561961,31.8078532 1.09101555,32.4153873 0.998613497,33.126213 C0.906211443,33.8370387 1.20004946,34.5431647 1.7694416,34.9786 L26.769442,53.9786 C27.5547408,54.5717028 28.6547942,54.505457 29.363242,53.8224 L82.363242,3.82232 C83.0045105,3.23967509 83.1977404,2.31040493 82.8418924,1.52042231 C82.4860443,0.730439689 81.6620372,0.259384423 80.800742,0.35357 L80.800742,0.35357 Z" id="Path"></path>
            </g>
        </g>
    </g>
</svg>