<?xml version="1.0" encoding="UTF-8"?>
<svg width="64px" height="64px" viewBox="0 0 64 64" version="1.1" xmlns="http://www.w3.org/2000/svg" xmlns:xlink="http://www.w3.org/1999/xlink">
    <!-- Generator: Sketch 56.3 (81716) - https://sketch.com -->
    <title>Path</title>
    <desc>Created with Sketch.</desc>
    <g id="Page-1" stroke="none" stroke-width="1" fill="none" fill-rule="evenodd">
        <g id="noun_send_976415" transform="translate(-18.000000, 0.000000)" fill="#fff" fill-rule="nonzero">
            <path d="M62.55,24.44 C63.0101452,23.8543069 62.9517033,23.015249 62.4148061,22.4990017 C61.8779088,21.9827543 61.0372049,21.957249 60.47,22.44 L34.47,44.56 L20.74,39.25 C19.5203042,38.7832278 18.6845405,37.6483952 18.600667,36.3451303 C18.5167935,35.0418654 19.2001977,33.8092647 20.35,33.19 L77.35,1.26 C78.2627823,0.768308155 79.3721515,0.819185263 80.2360976,1.39236017 C81.1000437,1.96553509 81.5781797,2.96786961 81.48,4 L76.48,56.12 C76.378474,57.2038904 75.7713204,58.1762772 74.8420188,58.7433087 C73.9127173,59.3103401 72.7702995,59.4054884 71.76,59 L55.05,52.53 L44.56,62.36 C43.7686741,63.0993109 42.6131767,63.2965291 41.6214253,62.8615504 C40.6296739,62.4265717 39.9921019,61.4429196 40,60.36 L40,52.64 L62.55,24.44 Z" id="Path"></path>
        </g>
    </g>
</svg>
