<?xml version="1.0" encoding="UTF-8"?>
<svg width="72px" height="52px" viewBox="0 0 72 52" version="1.1" xmlns="http://www.w3.org/2000/svg" xmlns:xlink="http://www.w3.org/1999/xlink">
    <!-- Generator: Sketch 56.3 (81716) - https://sketch.com -->
    <title>Group</title>
    <desc>Created with Sketch.</desc>
    <g id="Page-1" stroke="none" stroke-width="1" fill="none" fill-rule="evenodd">
        <g id="noun_streaming_55528" transform="translate(-14.000000, 0.000000)" fill="#F2561C" fill-rule="nonzero">
            <g id="Group" transform="translate(14.000000, 0.000000)">
                <g id="Path">
                    <path d="M61.505,1.432 C60.945,0.854 60.178,0.526 59.373,0.519 C59.365,0.519 59.358,0.519 59.351,0.519 C58.555,0.519 57.791,0.835 57.228,1.399 L56.926,1.701 C55.77,2.859 55.755,4.73 56.893,5.907 C62.167,11.358 65.073,18.537 65.073,26.121 C65.073,33.706 62.168,40.885 56.893,46.335 C55.752,47.513 55.769,49.389 56.93,50.546 L57.233,50.848 C57.795,51.409 58.557,51.723 59.351,51.723 C59.36,51.723 59.369,51.723 59.377,51.723 C60.18,51.716 60.946,51.387 61.505,50.811 C67.95,44.158 71.5,35.39 71.5,26.121 C71.5,16.853 67.95,8.085 61.505,1.432 Z"></path>
                    <path d="M6.928,26.121 C6.928,18.538 9.833,11.359 15.108,5.907 C16.248,4.73 16.232,2.856 15.072,1.698 L14.769,1.396 C14.206,0.834 13.444,0.519 12.649,0.519 C12.641,0.519 12.632,0.519 12.624,0.519 C11.82,0.526 11.053,0.854 10.494,1.432 C4.049,8.085 0.5,16.853 0.5,26.121 C0.5,35.39 4.049,44.158 10.495,50.81 C11.055,51.388 11.822,51.716 12.626,51.723 C12.634,51.723 12.642,51.723 12.65,51.723 C13.445,51.723 14.209,51.408 14.771,50.844 L15.074,50.541 C16.232,49.383 16.248,47.511 15.109,46.334 C9.833,40.884 6.928,33.705 6.928,26.121 Z"></path>
                    <path d="M51.611,12.945 C51.05,12.366 50.281,12.038 49.475,12.032 C49.469,12.032 49.462,12.032 49.456,12.032 C48.657,12.032 47.891,12.351 47.328,12.918 L47.181,13.066 C46.03,14.225 46.017,16.092 47.153,17.267 C49.464,19.654 50.736,22.799 50.736,26.121 C50.736,29.444 49.464,32.589 47.154,34.975 C46.017,36.15 46.029,38.017 47.181,39.176 L47.328,39.324 C47.89,39.891 48.657,40.21 49.456,40.21 C49.462,40.21 49.469,40.21 49.475,40.21 C50.281,40.205 51.05,39.876 51.611,39.298 C55.051,35.747 56.946,31.068 56.946,26.121 C56.946,21.175 55.052,16.496 51.611,12.945 Z"></path>
                    <path d="M24.812,13.06 L24.664,12.912 C24.102,12.349 23.338,12.033 22.543,12.033 C22.535,12.033 22.527,12.033 22.519,12.033 C21.715,12.039 20.948,12.368 20.388,12.946 C16.949,16.496 15.055,21.175 15.055,26.122 C15.055,31.069 16.949,35.749 20.389,39.299 C20.948,39.876 21.716,40.204 22.52,40.211 C22.528,40.211 22.536,40.211 22.543,40.211 C23.338,40.211 24.102,39.896 24.664,39.332 L24.812,39.184 C25.97,38.026 25.985,36.154 24.847,34.976 C22.537,32.589 21.264,29.446 21.264,26.122 C21.264,22.8 22.536,19.655 24.847,17.268 C25.986,16.09 25.971,14.217 24.812,13.06 Z"></path>
                </g>
                <circle id="Oval" cx="36" cy="26.009" r="6.5"></circle>
            </g>
        </g>
    </g>
</svg>