<?xml version="1.0" encoding="UTF-8"?>
<svg width="82px" height="68px" viewBox="0 0 82 68" version="1.1" xmlns="http://www.w3.org/2000/svg" xmlns:xlink="http://www.w3.org/1999/xlink">
    <!-- Generator: Sketch 56.3 (81716) - https://sketch.com -->
    <title>Shape</title>
    <desc>Created with Sketch.</desc>
    <g id="Page-1" stroke="none" stroke-width="1" fill="none" fill-rule="evenodd">
        <g id="noun_Camera_758357" transform="translate(-9.000000, -1.000000)" fill="#FB4C45" fill-rule="nonzero">
            <g id="Group" transform="translate(9.000000, 0.637820)">
                <path d="M29.0000001,0.36218 L24.0000001,10.36218 L7.0000001,10.36218 C3.122,10.36218 1.00000001e-07,13.48417 1.00000001e-07,17.36218 L1.00000001e-07,61.3622 C1.00000001e-07,65.2402 3.122,68.3622 7.0000001,68.3622 L75.0000001,68.3622 C78.878,68.3622 82.0000001,65.2402 82.0000001,61.3622 L82.0000001,17.36218 C82.0000001,13.48417 78.878,10.36218 75.0000001,10.36218 L58.0000001,10.36218 L53.0000001,0.36218 L29.0000001,0.36218 L29.0000001,0.36218 Z M41,17.36218 C53.103,17.36218 63,27.25934 63,39.3622 C63,51.465 53.103,61.3622 41,61.3622 C28.8972,61.3622 19,51.4651 19,39.3622 C19,27.25929 28.8972,17.36218 41,17.36218 L41,17.36218 Z M41,25.36218 C33.2208,25.36218 27,31.58289 27,39.3622 C27,47.1415 33.2208,53.3622 41,53.3622 C48.7794,53.3622 55,47.1415 55,39.3622 C55,31.58279 48.7794,25.36218 41,25.36218 Z" id="Shape"></path>
            </g>
        </g>
    </g>
</svg>