<?xml version="1.0" encoding="UTF-8"?>
<svg width="84px" height="84px" viewBox="0 0 84 84" version="1.1" xmlns="http://www.w3.org/2000/svg" xmlns:xlink="http://www.w3.org/1999/xlink">
    <!-- Generator: Sketch 56.3 (81716) - https://sketch.com -->
    <title>Group</title>
    <desc>Created with Sketch.</desc>
    <g id="Page-1" stroke="none" stroke-width="1" fill="none" fill-rule="evenodd">
        <g id="noun_Exit_1584376" transform="translate(-8.000000, 0.000000)" fill="#FB4C45" fill-rule="nonzero">
            <g id="Group" transform="translate(8.000000, 0.000000)">
                <path d="M57,58.5 L57,76.5 C57,80.635 53.637,84 49.5,84 L7.5,84 C3.363,84 0,80.635 0,76.5 L0,7.5 C0,3.365 3.363,0 7.5,0 L49.5,0 C53.637,0 57,3.365 57,7.5 L57,25.5 C57,27.986 54.984,30 52.5,30 C50.016,30 48,27.986 48,25.5 L48,9 L9,9 L9,75 L48,75 L48,58.5 C48,56.014 50.016,54 52.5,54 C54.984,54 57,56.014 57,58.5 Z" id="Path"></path>
                <path d="M83.121,44.121 L71.121,56.121 C70.266,56.976 68.979,57.237 67.851,56.771 C66.729,56.307 66,55.213 66,54 L66,48 L45,48 C41.687,48 39,45.313 39,42 C39,38.687 41.687,36 45,36 L66,36 L66,30 C66,28.787 66.729,27.693 67.852,27.229 C68.977,26.766 70.266,27.021 71.122,27.879 L83.122,39.879 C84.293,41.051 84.293,42.949 83.121,44.121 Z" id="Path"></path>
            </g>
        </g>
    </g>
</svg>