<?xml version="1.0" encoding="UTF-8"?>
<svg width="96px" height="84px" viewBox="0 0 96 84" version="1.1" xmlns="http://www.w3.org/2000/svg" xmlns:xlink="http://www.w3.org/1999/xlink">
    <!-- Generator: Sketch 56.3 (81716) - https://sketch.com -->
    <title>Shape</title>
    <desc>Created with Sketch.</desc>
    <g id="Page-1" stroke="none" stroke-width="1" fill="none" fill-rule="evenodd">
        <g id="noun_Heart_1917962" transform="translate(-2.000000, 0.000000)" fill="#FB4C45" fill-rule="nonzero">
            <path d="M50,83.7 C47,83.7 44,82.6 41.8,80.3 L10.9,49.4 C10.8,49.3 10.7,49.2 10.7,49.2 C-0.3,38 -0.2,19.9 10.9,8.8 C16.3,3.4 23.6,0.4 31.2,0.4 C38.2,0.4 44.7,2.9 50,7.4 C55.2,2.9 61.8,0.4 68.8,0.4 C76.5,0.4 83.7,3.4 89.1,8.8 L89.1,8.8 C100.3,20 100.3,38.1 89.2,49.3 C89.2,49.3 89.1,49.4 89.1,49.4 L58.3,80.3 C56,82.5 53,83.7 50,83.7 Z M18,42.8 L48.6,73.4 C49.3,74.1 50.6,74.1 51.3,73.4 L82,42.7 C82,42.6 82.1,42.6 82.2,42.5 C82.2,42.5 82.3,42.4 82.3,42.4 C89.6,35 89.6,23 82.2,15.6 C82.2,15.6 82.2,15.6 82.2,15.6 C78.6,12 73.8,10 68.8,10 C63.8,10 59,12 55.4,15.5 C55.4,15.5 55.3,15.6 55.3,15.6 C55.2,15.7 55.2,15.7 55.1,15.8 L53.5,17.5 C52.6,18.4 51.3,19 50,19 C48.7,19 47.4,18.5 46.5,17.6 L44.8,15.9 C44.7,15.8 44.7,15.8 44.6,15.7 C41,12.1 36.3,10.2 31.2,10.2 C26.1,10.2 21.3,12.2 17.8,15.8 C10.4,23.2 10.4,35.2 17.8,42.6 C17.8,42.6 17.8,42.6 17.9,42.7 C17.9,42.6 18,42.7 18,42.8 Z" id="Shape"></path>
        </g>
    </g>
</svg>