<svg xmlns="http://www.w3.org/2000/svg" xmlns:xlink="http://www.w3.org/1999/xlink" viewBox="0 0 61 60"><defs/><defs><linearGradient id="b" x1="21.9975729%" x2="89.3149028%" y1="21.3001125%" y2="99.947415%"><stop offset="0%" stop-color="#FF6A05"/><stop offset="100%" stop-color="#F40080"/></linearGradient><path id="a" d="M53 60H41c-1.7 0-3-1.3-3-3v-9.6c0-3.3-2.7-6-6-6s-6 2.7-6 6V57c0 1.7-1.3 3-3 3H11c-1.7 0-3-1.3-3-3V27.6H5c-1.3 0-2.4-.8-2.8-2-.4-1.2 0-2.5 1-3.3L30.2.7c1.1-.9 2.7-.9 3.7 0l27 21.6c1 .8 1.4 2.1 1 3.3-.4 1.2-1.6 2-2.8 2h-3V57c-.1 1.7-1.4 3-3.1 3z"/></defs><g fill="none" fill-rule="nonzero" transform="translate(-2)"><use fill="#000" xlink:href="#a"/><use fill="url(#b)" xlink:href="#a"/></g></svg>
