<?xml version="1.0" encoding="UTF-8"?>
<svg width="24px" height="26px" viewBox="0 0 24 26" version="1.1" xmlns="http://www.w3.org/2000/svg" xmlns:xlink="http://www.w3.org/1999/xlink">
    <!-- Generator: Sketch 56.3 (81716) - https://sketch.com -->
    <title>Group</title>
    <desc>Created with Sketch.</desc>
    <g id="Page-1" stroke="none" stroke-width="1" fill="none" fill-rule="evenodd">
        <g id="noun_User_3244730" transform="translate(-4.000000, 0.000000)" fill="#FB4C45" fill-rule="nonzero">
            <g id="Group" transform="translate(4.000000, 0.000000)">
                <path d="M12,0 C8.69813,0 6,2.69814 6,6 C6,9.30186 8.69814,12 12,12 C15.30186,12 18,9.30186 18,6 C18,2.69814 15.30187,0 12,0 Z M12,2 C14.22099,2 16,3.77902 16,6 C16,8.22098 14.22098,10 12,10 C9.77902,10 8,8.22098 8,6 C8,3.77902 9.77901,2 12,2 Z" id="Shape"></path>
                <path d="M9,14 C4.0313,14 0,18.0313 0,23 L0,25 C0,25.5522619 0.447738101,26 1,26 L23,26 C23.5522619,26 24,25.5522619 24,25 L24,23 C24,18.0313 19.9687,14 15,14 L9,14 Z M9,16 L15,16 C18.8953,16 22,19.10471 22,23 L22,24 L2,24 L2,23 C2,19.10471 5.1047,16 9,16 Z" id="Shape"></path>
            </g>
        </g>
    </g>
</svg>