<?xml version="1.0" encoding="UTF-8"?>
<svg width="906px" height="906px" viewBox="0 0 906 906" version="1.1" xmlns="http://www.w3.org/2000/svg" xmlns:xlink="http://www.w3.org/1999/xlink">
    <!-- Generator: Sketch 56.3 (81716) - https://sketch.com -->
    <title>Group</title>
    <desc>Created with Sketch.</desc>
    <g id="Page-1" stroke="none" stroke-width="1" fill="none" fill-rule="evenodd">
        <g id="noun_Settings_3235165" transform="translate(-59.000000, 0.000000)" fill="#FB4C45" fill-rule="nonzero">
            <g id="Group" transform="translate(59.000000, 0.000000)">
                <path d="M744.7,550.6 C741.8,559.5 738.5,568.2 734.9,576.8 C735.9,574.4 736.9,572 737.9,569.6 C729.5,589.1 717.9,607.4 719.5,629.6 C720.6,644.5 725.1,657.9 733.2,670.4 C737.9,677.6 742.6,684.9 747.3,692.1 C751,697.8 755.4,703.5 758.1,709.8 C757.1,707.4 756.1,705 755.1,702.6 C755.9,704.9 756.5,707.1 756.9,709.5 C756.5,706.8 756.2,704.2 755.8,701.5 C756.1,704.3 756.1,707.1 755.7,709.9 C756.1,707.2 756.4,704.6 756.8,701.9 C756.4,704.2 755.8,706.4 754.9,708.7 C755.9,706.3 756.9,703.9 757.9,701.5 C757.2,703.1 755.7,704.9 755.2,706.5 C758.5,702.4 759.2,701.5 757.2,703.9 C756.9,704.3 756.5,704.6 756.2,705 C755.9,705.3 755.5,705.7 755.2,706 C753.4,707.8 751.6,709.6 749.8,711.4 C743.4,717.8 737,724.2 730.5,730.7 C724,737.2 717.7,743.5 711.2,750 C709.4,751.8 707.6,753.6 705.8,755.4 C705.5,755.7 705.2,756.1 704.8,756.4 C704.4,756.8 704.1,757.1 703.7,757.4 C701.4,759.4 702.2,758.7 706.3,755.4 C704.7,755.9 702.9,757.4 701.3,758.1 C703.7,757.1 706.1,756.1 708.5,755.1 C706.3,756 704.1,756.6 701.7,757 C704.4,756.6 707,756.3 709.7,755.9 C706.9,756.3 704.1,756.3 701.3,756 C704,756.4 706.6,756.7 709.3,757.1 C706.9,756.7 704.7,756.1 702.4,755.3 C704.8,756.3 707.2,757.3 709.6,758.3 C703.3,755.6 697.6,751.2 691.9,747.5 C684.7,742.8 677.4,738.1 670.2,733.4 C657.8,725.3 644.3,720.8 629.4,719.7 C607.2,718.1 588.9,729.7 569.4,738.1 C571.8,737.1 574.2,736.1 576.6,735.1 C567.5,738.9 558.3,742 549.1,745.4 C538.1,749.5 529,754.6 520.3,762.6 C508.8,773.1 501,787.9 497.7,803 C495.9,811.6 494.1,820.1 492.2,828.7 C490.7,835.7 489.8,843.2 487.2,849.9 C488.2,847.5 489.2,845.1 490.2,842.7 C489.5,844.3 488.6,845.8 487.7,847.4 C485.3,851.7 493.3,842 488.7,845.9 C488.2,846.4 487.8,846.8 487.3,847.3 C485,849.2 486,848.5 490.3,845 C488.7,845.6 487.3,846.8 485.7,847.5 C488.1,846.5 490.5,845.5 492.9,844.5 C490.4,845.5 487.9,846.2 485.2,846.7 C487.9,846.3 490.5,846 493.2,845.6 C488.4,846.2 483.5,845.9 478.7,845.9 C470.1,845.9 461.5,845.9 452.9,845.9 C444.3,845.9 435.7,845.9 427.1,845.9 C422.3,845.9 417.4,846.2 412.6,845.6 C415.3,846 417.9,846.3 420.6,846.7 C417.9,846.3 415.4,845.6 412.9,844.5 C415.3,845.5 417.7,846.5 420.1,847.5 C418.5,846.8 417.1,845.6 415.5,845 C419.8,848.5 420.8,849.2 418.5,847.3 C418,846.9 417.5,846.4 417.1,845.9 C412.4,842 420.5,851.7 418.1,847.4 C417.2,845.8 416.3,844.3 415.6,842.7 C416.6,845.1 417.6,847.5 418.6,849.9 C416,843.4 415.1,836 413.7,829.1 C411.8,820.4 410,811.7 408.1,802.9 C404.9,787.9 397.2,773.5 386,763 C377.3,754.8 367.8,749.5 356.7,745.4 C347.5,742 338.2,738.9 329.2,735.1 C331.6,736.1 334,737.1 336.4,738.1 C316.9,729.7 298.6,718.1 276.4,719.7 C261.5,720.8 248.1,725.3 235.6,733.4 C228.4,738.1 221.1,742.8 213.9,747.5 C208.2,751.2 202.5,755.6 196.2,758.3 C198.6,757.3 201,756.3 203.4,755.3 C201.1,756.1 198.9,756.7 196.5,757.1 C199.2,756.7 201.8,756.4 204.5,756 C201.7,756.3 198.9,756.3 196.1,755.9 C198.8,756.3 201.4,756.6 204.1,757 C201.8,756.6 199.6,756 197.3,755.1 C199.7,756.1 202.1,757.1 204.5,758.1 C202.9,757.4 201.1,755.9 199.5,755.4 C203.6,758.7 204.5,759.4 202.1,757.4 C201.7,757.1 201.4,756.7 201,756.4 C200.7,756.1 200.3,755.7 200,755.4 C198.2,753.6 196.4,751.8 194.6,750 C188.2,743.6 181.8,737.2 175.3,730.7 C168.8,724.2 162.5,717.9 156,711.4 C154.2,709.6 152.4,707.8 150.6,706 C150.3,705.7 149.9,705.4 149.6,705 C149.2,704.6 148.9,704.3 148.6,703.9 C146.6,701.6 147.3,702.4 150.6,706.5 C150.1,704.9 148.6,703.1 147.9,701.5 C148.9,703.9 149.9,706.3 150.9,708.7 C150,706.5 149.4,704.3 149,701.9 C149.4,704.6 149.7,707.2 150.1,709.9 C149.7,707.1 149.7,704.3 150,701.5 C149.6,704.2 149.3,706.8 148.9,709.5 C149.3,707.1 149.9,704.9 150.7,702.6 C149.7,705 148.7,707.4 147.7,709.8 C150.4,703.5 154.8,697.8 158.5,692.1 C163.2,684.9 167.9,677.6 172.6,670.4 C180.7,658 185.2,644.5 186.3,629.6 C187.9,607.4 176.3,589.1 167.9,569.6 C168.9,572 169.9,574.4 170.9,576.8 C167.1,567.7 164,558.5 160.6,549.3 C156.5,538.3 151.4,529.2 143.4,520.5 C132.9,509 118.1,501.2 103,497.9 C94.4,496.1 85.9,494.3 77.3,492.4 C70.3,490.9 62.8,490 56.1,487.4 C58.5,488.4 60.9,489.4 63.3,490.4 C61.7,489.7 60.2,488.8 58.6,487.9 C54.3,485.5 64,493.5 60.1,488.9 C59.6,488.4 59.2,488 58.7,487.5 C56.8,485.2 57.5,486.2 61,490.5 C60.4,488.9 59.2,487.5 58.5,485.9 C59.5,488.3 60.5,490.7 61.5,493.1 C60.5,490.6 59.8,488.1 59.3,485.4 C59.7,488.1 60,490.7 60.4,493.4 C59.8,488.6 60.1,483.7 60.1,478.9 C60.1,470.3 60.1,461.7 60.1,453.1 C60.1,444.5 60.1,435.9 60.1,427.3 C60.1,422.5 59.8,417.6 60.4,412.8 C60,415.5 59.7,418.1 59.3,420.8 C59.7,418.1 60.4,415.6 61.5,413.1 C60.5,415.5 59.5,417.9 58.5,420.3 C59.2,418.7 60.4,417.3 61,415.7 C57.5,420 56.8,421 58.7,418.7 C59.1,418.2 59.6,417.7 60.1,417.3 C64,412.6 54.3,420.7 58.6,418.3 C60.2,417.4 61.7,416.5 63.3,415.8 C60.9,416.8 58.5,417.8 56.1,418.8 C62.6,416.2 70,415.3 76.9,413.9 C85.6,412 94.3,410.2 103.1,408.3 C118.1,405.1 132.5,397.4 143,386.2 C151.2,377.5 156.5,368 160.6,356.9 C164,347.7 167.1,338.4 170.9,329.4 C169.9,331.8 168.9,334.2 167.9,336.6 C176.3,317.1 187.9,298.8 186.3,276.6 C185.2,261.7 180.7,248.3 172.6,235.8 C167.9,228.6 163.2,221.3 158.5,214.1 C154.8,208.4 150.4,202.7 147.7,196.4 C148.7,198.8 149.7,201.2 150.7,203.6 C149.9,201.3 149.3,199.1 148.9,196.7 C149.3,199.4 149.6,202 150,204.7 C149.7,201.9 149.7,199.1 150.1,196.3 C149.7,199 149.4,201.6 149,204.3 C149.4,202 150,199.8 150.9,197.5 C149.9,199.9 148.9,202.3 147.9,204.7 C148.6,203.1 150.1,201.3 150.6,199.7 C147.3,203.8 146.6,204.7 148.6,202.3 C148.9,201.9 149.3,201.6 149.6,201.2 C149.9,200.9 150.3,200.5 150.6,200.2 C152.4,198.4 154.2,196.6 156,194.8 C162.4,188.4 168.8,182 175.3,175.5 C181.7,169.1 188.1,162.7 194.6,156.2 C196.4,154.4 198.2,152.6 200,150.8 C200.3,150.5 200.6,150.1 201,149.8 C201.4,149.4 201.7,149.1 202.1,148.8 C204.4,146.8 203.6,147.5 199.5,150.8 C201.1,150.3 202.9,148.8 204.5,148.1 C202.1,149.1 199.7,150.1 197.3,151.1 C199.5,150.2 201.7,149.6 204.1,149.2 C201.4,149.6 198.8,149.9 196.1,150.3 C198.9,149.9 201.7,149.9 204.5,150.2 C201.8,149.8 199.2,149.5 196.5,149.1 C198.9,149.5 201.1,150.1 203.4,150.9 C201,149.9 198.6,148.9 196.2,147.9 C202.5,150.6 208.2,155 213.9,158.7 C221.1,163.4 228.4,168.1 235.6,172.8 C248,180.9 261.5,185.4 276.4,186.5 C298.6,188.1 316.9,176.5 336.4,168.1 C334,169.1 331.6,170.1 329.2,171.1 C338.3,167.3 347.5,164.2 356.7,160.8 C367.7,156.7 376.8,151.6 385.5,143.6 C397,133.1 404.8,118.3 408.1,103.2 C409.9,94.6 411.7,86.1 413.6,77.5 C415.1,70.5 416,63 418.6,56.3 C417.6,58.7 416.6,61.1 415.6,63.5 C416.3,61.9 417.2,60.4 418.1,58.8 C420.5,54.5 412.5,64.2 417.1,60.3 C417.6,59.8 418,59.4 418.5,58.9 C420.8,57 419.8,57.7 415.5,61.2 C417.1,60.6 418.5,59.4 420.1,58.7 C417.7,59.7 415.3,60.7 412.9,61.7 C415.4,60.7 417.9,60 420.6,59.5 C417.9,59.9 415.3,60.2 412.6,60.6 C417.4,60 422.3,60.3 427.1,60.3 C435.7,60.3 444.3,60.3 452.9,60.3 C461.5,60.3 470.1,60.3 478.7,60.3 C483.5,60.3 488.4,60 493.2,60.6 C490.5,60.2 487.9,59.9 485.2,59.5 C487.9,59.9 490.4,60.6 492.9,61.7 C490.5,60.7 488.1,59.7 485.7,58.7 C487.3,59.4 488.7,60.6 490.3,61.2 C486,57.7 485,57 487.3,58.9 C487.8,59.3 488.3,59.8 488.7,60.3 C493.4,64.2 485.3,54.5 487.7,58.8 C488.6,60.4 489.5,61.9 490.2,63.5 C489.2,61.1 488.2,58.7 487.2,56.3 C489.8,62.8 490.7,70.2 492.1,77.1 C494,85.8 495.8,94.5 497.7,103.3 C500.9,118.3 508.6,132.7 519.8,143.2 C528.5,151.4 538,156.7 549.1,160.8 C558.3,164.2 567.6,167.3 576.6,171.1 C574.2,170.1 571.8,169.1 569.4,168.1 C588.9,176.5 607.2,188.1 629.4,186.5 C644.3,185.4 657.7,180.9 670.2,172.8 C677.4,168.1 684.7,163.4 691.9,158.7 C697.6,155 703.3,150.6 709.6,147.9 C707.2,148.9 704.8,149.9 702.4,150.9 C704.7,150.1 706.9,149.5 709.3,149.1 C706.6,149.5 704,149.8 701.3,150.2 C704.1,149.9 706.9,149.9 709.7,150.3 C707,149.9 704.4,149.6 701.7,149.2 C704,149.6 706.2,150.2 708.5,151.1 C706.1,150.1 703.7,149.1 701.3,148.1 C702.9,148.8 704.7,150.3 706.3,150.8 C702.2,147.5 701.3,146.8 703.7,148.8 C704.1,149.1 704.4,149.5 704.8,149.8 C705.1,150.1 705.5,150.5 705.8,150.8 C707.6,152.6 709.4,154.4 711.2,156.2 C717.6,162.6 724,169 730.5,175.5 C736.9,181.9 743.3,188.3 749.8,194.8 C751.6,196.6 753.4,198.4 755.2,200.2 C755.5,200.5 755.9,200.8 756.2,201.2 C756.6,201.6 756.9,201.9 757.2,202.3 C759.2,204.6 758.5,203.8 755.2,199.7 C755.7,201.3 757.2,203.1 757.9,204.7 C756.9,202.3 755.9,199.9 754.9,197.5 C755.8,199.7 756.4,201.9 756.8,204.3 C756.4,201.6 756.1,199 755.7,196.3 C756.1,199.1 756.1,201.9 755.8,204.7 C756.2,202 756.5,199.4 756.9,196.7 C756.5,199.1 755.9,201.3 755.1,203.6 C756.1,201.2 757.1,198.8 758.1,196.4 C755.4,202.7 751,208.4 747.3,214.1 C742.6,221.3 737.9,228.6 733.2,235.8 C725.1,248.2 720.6,261.7 719.5,276.6 C717.9,298.8 729.5,317.1 737.9,336.6 C736.9,334.2 735.9,331.8 734.9,329.4 C738.7,338.5 741.8,347.7 745.2,356.9 C749.3,367.9 754.4,377 762.4,385.7 C772.9,397.2 787.7,405 802.8,408.3 C811.4,410.1 819.9,411.9 828.5,413.8 C835.5,415.3 843,416.2 849.7,418.8 C847.3,417.8 844.9,416.8 842.5,415.8 C844.1,416.5 845.6,417.4 847.2,418.3 C851.5,420.7 841.8,412.7 845.7,417.3 C846.2,417.8 846.6,418.2 847.1,418.7 C849,421 848.3,420 844.8,415.7 C845.4,417.3 846.6,418.7 847.3,420.3 C846.3,417.9 845.3,415.5 844.3,413.1 C845.3,415.6 846,418.1 846.5,420.8 C846.1,418.1 845.8,415.5 845.4,412.8 C846,417.6 845.7,422.5 845.7,427.3 C845.7,435.9 845.7,444.5 845.7,453.1 C845.7,461.7 845.7,470.3 845.7,478.9 C845.7,483.7 846,488.6 845.4,493.4 C845.8,490.7 846.1,488.1 846.5,485.4 C846.1,488.1 845.4,490.6 844.3,493.1 C845.3,490.7 846.3,488.3 847.3,485.9 C846.6,487.5 845.4,488.9 844.8,490.5 C848.3,486.2 849,485.2 847.1,487.5 C846.7,488 846.2,488.5 845.7,488.9 C841.8,493.6 851.5,485.5 847.2,487.9 C845.6,488.8 844.1,489.7 842.5,490.4 C844.9,489.4 847.3,488.4 849.7,487.4 C844,489.6 837.7,490.5 831.7,491.7 C823.5,493.4 815.3,495.2 807.1,496.9 C797.8,498.9 788.9,501.5 780.4,506.2 C763.1,515.9 751.1,532.1 744.7,550.6 C739.6,565.4 750.6,584.1 765.7,587.5 C782.4,591.3 797.1,582.4 802.6,566.5 C803.1,565.1 803.6,563.8 804.1,562.5 C803.1,564.9 802.1,567.3 801.1,569.7 C802.3,567.1 803.7,564.7 805.2,562.3 C808,557.7 800.3,567.9 803.9,563.9 C804.8,562.9 805.8,561.8 806.8,560.9 C807.5,560.2 809,558.3 809.9,558.1 C808.6,559.1 807.3,560.1 806,561.1 C806.8,560.6 807.5,560 808.3,559.5 C810.7,558 813.2,556.7 815.8,555.6 C813.4,556.6 811,557.6 808.6,558.6 C815.8,555.8 823.8,554.6 831.4,553 C840.3,551.1 849.2,549.2 858,547.3 C874.5,543.8 889.7,533.4 897.9,518.4 C904,507.4 905.601108,495.6 905.601108,483.3 C905.601108,464.8 905.601108,446.3 905.601108,427.8 C905.601108,419.5 905.7,411.6 904,403.3 C899.7,381.9 881.3,363.9 860.2,359 C851.9,357.1 843.4,355.4 835,353.6 C826.2,351.7 816.8,350.5 808.4,347.2 C810.8,348.2 813.2,349.2 815.6,350.2 C813,349.1 810.5,347.8 808.1,346.3 C805.8,344.9 803.4,341.9 809.6,347.7 C808.6,346.7 807.5,345.9 806.5,344.9 C805.5,343.9 804.6,342.9 803.6,341.9 C800.2,338.3 807.6,348.1 804.9,343.5 C803.5,341 802,338.7 800.8,336.1 C801.8,338.5 802.8,340.9 803.8,343.3 C800,334.2 797.3,324.8 793.5,315.7 C788.9,304.6 783.5,293.9 778.7,282.9 C779.7,285.3 780.7,287.7 781.7,290.1 C780.1,286.1 779,282.1 778.4,277.8 C778.8,280.5 779.1,283.1 779.5,285.8 C779,281.6 779.1,277.4 779.6,273.2 C779.2,275.9 778.9,278.5 778.5,281.2 C779.2,277 780.3,273 781.9,269 C780.9,271.4 779.9,273.8 778.9,276.2 C782,269.2 786.7,262.9 790.8,256.5 C795.7,248.9 800.6,241.4 805.5,233.8 C815,219.1 818.8,200.1 813.2,183.2 C809.4,171.6 802.5,162.6 794,154.1 C781.1,141.2 768.1,128.2 755.2,115.3 C749.6,109.7 744.3,104.2 737.7,99.6 C719.1,86.7 692.9,86.9 673.9,98.7 C666.8,103.1 659.8,107.8 652.8,112.4 C645.2,117.3 637.7,123 629.5,126.7 C631.9,125.7 634.3,124.7 636.7,123.7 C632.7,125.3 628.7,126.4 624.5,127.1 C627.2,126.7 629.8,126.4 632.5,126 C628.3,126.5 624.1,126.5 619.9,126.1 C622.6,126.5 625.2,126.8 627.9,127.2 C623.6,126.6 619.6,125.5 615.6,123.9 C618,124.9 620.4,125.9 622.8,126.9 C611.8,122 601.1,116.7 590,112.1 C580.9,108.3 571.4,105.6 562.4,101.8 C564.8,102.8 567.2,103.8 569.6,104.8 C567,103.6 564.6,102.2 562.2,100.7 C557.6,97.9 567.8,105.6 563.8,102 C562.8,101.1 561.7,100.1 560.8,99.1 C560.1,98.4 558.2,96.9 558,96 C559,97.3 560,98.6 561,99.9 C560.5,99.1 559.9,98.4 559.4,97.6 C557.9,95.2 556.6,92.7 555.5,90.1 C556.5,92.5 557.5,94.9 558.5,97.3 C555.7,90.1 554.5,82.1 552.9,74.5 C551,65.6 549.1,56.7 547.2,47.9 C543.7,31.4 533.3,16.2 518.3,8 C507.3,1.9 495.5,0.298891967 483.2,0.298891967 C464.7,0.298891967 446.2,0.298891967 427.7,0.298891967 C419.4,0.298891967 411.5,0.2 403.2,1.9 C381.8,6.2 363.8,24.6 358.9,45.7 C357,54 355.3,62.5 353.5,70.9 C351.6,79.7 350.4,89.1 347.1,97.5 C348.1,95.1 349.1,92.7 350.1,90.3 C349,92.9 347.7,95.4 346.2,97.8 C344.8,100.1 341.8,102.5 347.6,96.3 C346.6,97.3 345.8,98.4 344.8,99.4 C343.8,100.4 342.8,101.3 341.8,102.3 C338.2,105.7 348,98.3 343.4,101 C340.9,102.4 338.6,103.9 336,105.1 C338.4,104.1 340.8,103.1 343.2,102.1 C334.1,105.9 324.7,108.6 315.6,112.4 C304.5,117 293.8,122.4 282.8,127.2 C285.2,126.2 287.6,125.2 290,124.2 C286,125.8 282,126.9 277.7,127.5 C280.4,127.1 283,126.8 285.7,126.4 C281.5,126.9 277.3,126.8 273.1,126.3 C275.8,126.7 278.4,127 281.1,127.4 C276.9,126.7 272.9,125.6 268.9,124 C271.3,125 273.7,126 276.1,127 C269.1,123.9 262.8,119.2 256.4,115.1 C248.8,110.2 241.3,105.3 233.7,100.4 C219,90.9 200,87.1 183.1,92.7 C171.5,96.5 162.5,103.4 154,111.9 C141.1,124.8 128.1,137.8 115.2,150.7 C109.6,156.3 104.1,161.6 99.5,168.2 C86.6,186.8 86.8,213 98.6,232 C103,239.1 107.7,246.1 112.3,253.1 C117.2,260.7 122.9,268.2 126.6,276.4 C125.6,274 124.6,271.6 123.6,269.2 C125.2,273.2 126.3,277.2 127,281.4 C126.6,278.7 126.3,276.1 125.9,273.4 C126.4,277.6 126.4,281.8 126,286 C126.4,283.3 126.7,280.7 127.1,278 C126.5,282.3 125.4,286.3 123.8,290.3 C124.8,287.9 125.8,285.5 126.8,283.1 C121.9,294.1 116.6,304.8 112,315.9 C108.2,325 105.5,334.5 101.7,343.5 C102.7,341.1 103.7,338.7 104.7,336.3 C103.5,338.9 102.1,341.3 100.6,343.7 C97.8,348.3 105.5,338.1 101.9,342.1 C101,343.1 100,344.2 99,345.1 C98.3,345.8 96.8,347.7 95.9,347.9 C97.2,346.9 98.5,345.9 99.8,344.9 C99,345.4 98.3,346 97.5,346.5 C95.1,348 92.6,349.3 90,350.4 C92.4,349.4 94.8,348.4 97.2,347.4 C90,350.2 82,351.4 74.4,353 C65.5,354.9 56.6,356.8 47.8,358.7 C31.3,362.2 16.1,372.6 7.9,387.6 C1.8,398.6 0.198891967,410.4 0.198891967,422.7 C0.198891967,441.2 0.198891967,459.7 0.198891967,478.2 C0.198891967,486.5 0.1,494.4 1.8,502.7 C6.1,524.1 24.5,542.1 45.6,547 C53.9,548.9 62.4,550.6 70.8,552.4 C79.6,554.3 89,555.5 97.4,558.8 C95,557.8 92.6,556.8 90.2,555.8 C92.8,556.9 95.3,558.2 97.7,559.7 C100,561.1 102.4,564.1 96.2,558.3 C97.2,559.3 98.3,560.1 99.3,561.1 C100.3,562.1 101.2,563.1 102.2,564.1 C105.6,567.7 98.2,557.9 100.9,562.5 C102.3,565 103.8,567.3 105,569.9 C104,567.5 103,565.1 102,562.7 C105.8,571.8 108.5,581.2 112.3,590.3 C116.9,601.4 122.3,612.1 127.1,623.1 C126.1,620.7 125.1,618.3 124.1,615.9 C125.7,619.9 126.8,623.9 127.4,628.2 C127,625.5 126.7,622.9 126.3,620.2 C126.8,624.4 126.7,628.6 126.2,632.8 C126.6,630.1 126.9,627.5 127.3,624.8 C126.6,629 125.5,633 123.9,637 C124.9,634.6 125.9,632.2 126.9,629.8 C123.8,636.8 119.1,643.1 115,649.5 C110.1,657.1 105.2,664.6 100.3,672.2 C90.8,686.9 87,705.9 92.6,722.8 C96.4,734.4 103.3,743.4 111.8,751.9 C124.7,764.8 137.7,777.8 150.6,790.7 C156.2,796.3 161.5,801.8 168.1,806.4 C186.7,819.3 212.9,819.1 231.9,807.3 C239,802.9 246,798.2 253,793.6 C260.6,788.7 268.1,783 276.3,779.3 C273.9,780.3 271.5,781.3 269.1,782.3 C273.1,780.7 277.1,779.6 281.3,778.9 C278.6,779.3 276,779.6 273.3,780 C277.5,779.5 281.7,779.5 285.9,779.9 C283.2,779.5 280.6,779.2 277.9,778.8 C282.2,779.4 286.2,780.5 290.2,782.1 C287.8,781.1 285.4,780.1 283,779.1 C294,784 304.7,789.3 315.8,793.9 C324.9,797.7 334.4,800.4 343.4,804.2 C341,803.2 338.6,802.2 336.2,801.2 C338.8,802.4 341.2,803.8 343.6,805.3 C348.2,808.1 338,800.4 342,804 C343,804.9 344.1,805.9 345,806.9 C345.7,807.6 347.6,809.1 347.8,810 C346.8,808.7 345.8,807.4 344.8,806.1 C345.3,806.9 345.9,807.6 346.4,808.4 C347.9,810.8 349.2,813.3 350.3,815.9 C349.3,813.5 348.3,811.1 347.3,808.7 C350.1,815.9 351.3,823.9 352.9,831.5 C354.8,840.4 356.7,849.3 358.6,858.1 C362.1,874.6 372.5,889.8 387.5,898 C398.5,904.1 410.3,905.701108 422.6,905.701108 C441.1,905.701108 459.6,905.701108 478.1,905.701108 C486.4,905.701108 494.3,905.8 502.6,904.1 C524,899.8 542,881.4 546.9,860.3 C548.8,852 550.5,843.5 552.3,835.1 C554.2,826.3 555.4,816.9 558.7,808.5 C557.7,810.9 556.7,813.3 555.7,815.7 C556.8,813.1 558.1,810.6 559.6,808.2 C561,805.9 564,803.5 558.2,809.7 C559.2,808.7 560,807.6 561,806.6 C562,805.6 563,804.7 564,803.7 C567.6,800.3 557.8,807.7 562.4,805 C564.9,803.6 567.2,802.1 569.8,800.9 C567.4,801.9 565,802.9 562.6,803.9 C571.7,800.1 581.1,797.4 590.2,793.6 C601.3,789 612,783.6 623,778.8 C620.6,779.8 618.2,780.8 615.8,781.8 C619.8,780.2 623.8,779.1 628.1,778.5 C625.4,778.9 622.8,779.2 620.1,779.6 C624.3,779.1 628.5,779.2 632.7,779.7 C630,779.3 627.4,779 624.7,778.6 C628.9,779.3 632.9,780.4 636.9,782 C634.5,781 632.1,780 629.7,779 C636.7,782.1 643,786.8 649.4,790.9 C657,795.8 664.5,800.7 672.1,805.6 C686.8,815.1 705.8,818.9 722.7,813.3 C734.3,809.5 743.3,802.6 751.8,794.1 C764.7,781.2 777.7,768.2 790.6,755.3 C796.2,749.7 801.7,744.4 806.3,737.8 C819.2,719.2 819,693 807.2,674 C802.8,666.9 798.1,659.9 793.5,652.9 C788.6,645.3 782.9,637.8 779.2,629.6 C780.2,632 781.2,634.4 782.2,636.8 C780.6,632.8 779.5,628.8 778.8,624.6 C779.2,627.3 779.5,629.9 779.9,632.6 C779.4,628.4 779.4,624.2 779.8,620 C779.4,622.7 779.1,625.3 778.7,628 C779.3,623.7 780.4,619.7 782,615.7 C781,618.1 780,620.5 779,622.9 C787.3,604.2 796.1,585.9 802.6,566.5 C807.6,551.6 796.9,533.1 781.6,529.6 C765.1,525.9 750,534.7 744.7,550.6 Z" id="Path"></path>
                <path d="M596.6,453 C596.6,460.9 596,468.7 595,476.6 C595.4,473.9 595.7,471.3 596.1,468.6 C594,483.8 589.9,498.5 584,512.6 C585,510.2 586,507.8 587,505.4 C582.7,515.5 577.5,525.2 571.4,534.3 C569.9,536.5 568.4,538.6 566.9,540.7 C563.5,545.4 568.2,540.1 568.4,538.8 C568.3,539.8 566.2,541.6 565.5,542.4 C562,546.6 558.4,550.6 554.5,554.5 C550.8,558.2 546.9,561.7 542.9,565.1 C541.7,566.1 540.5,567 539.3,568 C536.8,570.1 546.1,563 541.2,566.5 C538.9,568.2 536.6,569.8 534.2,571.4 C525.1,577.5 515.4,582.7 505.3,587 C507.7,586 510.1,585 512.5,584 C498.4,589.9 483.6,593.9 468.5,596.1 C471.2,595.7 473.8,595.4 476.5,595 C460.8,597.1 445,597.1 429.4,595 C432.1,595.4 434.7,595.7 437.4,596.1 C422.2,594 407.5,589.9 393.4,584 C395.8,585 398.2,586 400.6,587 C390.5,582.7 380.8,577.5 371.7,571.4 C369.5,569.9 367.4,568.4 365.3,566.9 C360.6,563.5 365.9,568.2 367.2,568.4 C366.2,568.3 364.4,566.2 363.6,565.5 C359.4,562 355.4,558.4 351.5,554.5 C347.8,550.8 344.3,546.9 340.9,542.9 C339.9,541.7 339,540.5 338,539.3 C335.9,536.8 343,546.1 339.5,541.2 C337.8,538.9 336.2,536.6 334.6,534.2 C328.5,525.1 323.3,515.4 319,505.3 C320,507.7 321,510.1 322,512.5 C316.1,498.4 312.1,483.6 309.9,468.5 C310.3,471.2 310.6,473.8 311,476.5 C308.9,460.8 308.9,445 311,429.4 C310.6,432.1 310.3,434.7 309.9,437.4 C312,422.2 316.1,407.5 322,393.4 C321,395.8 320,398.2 319,400.6 C323.3,390.5 328.5,380.8 334.6,371.7 C336.1,369.5 337.6,367.4 339.1,365.3 C342.5,360.6 337.8,365.9 337.6,367.2 C337.7,366.2 339.8,364.4 340.5,363.6 C344,359.4 347.6,355.4 351.5,351.5 C355.2,347.8 359.1,344.3 363.1,340.9 C364.3,339.9 365.5,339 366.7,338 C369.2,335.9 359.9,343 364.8,339.5 C367.1,337.8 369.4,336.2 371.8,334.6 C380.9,328.5 390.6,323.3 400.7,319 C398.3,320 395.9,321 393.5,322 C407.6,316.1 422.4,312.1 437.5,309.9 C434.8,310.3 432.2,310.6 429.5,311 C445.2,308.9 461,308.9 476.6,311 C473.9,310.6 471.3,310.3 468.6,309.9 C483.8,312 498.5,316.1 512.6,322 C510.2,321 507.8,320 505.4,319 C515.5,323.3 525.2,328.5 534.3,334.6 C536.5,336.1 538.6,337.6 540.7,339.1 C545.4,342.5 540.1,337.8 538.8,337.6 C539.8,337.7 541.6,339.8 542.4,340.5 C546.6,344 550.6,347.6 554.5,351.5 C558.2,355.2 561.7,359.1 565.1,363.1 C566.1,364.3 567,365.5 568,366.7 C570.1,369.2 563,359.9 566.5,364.8 C568.2,367.1 569.8,369.4 571.4,371.8 C577.5,380.9 582.7,390.6 587,400.7 C586,398.3 585,395.9 584,393.5 C589.9,407.6 593.9,422.4 596.1,437.5 C595.7,434.8 595.4,432.2 595,429.5 C596,437.3 596.5,445.1 596.6,453 C596.7,468.7 610.4,483.7 626.6,483 C642.8,482.3 656.7,469.8 656.600536,453 C656.4,412.1 644.1,370.5 620.2,337 C595.2,302 561.5,276.1 521.1,261.2 C443.4,232.5 350.2,257.7 297.6,321.6 C269.8,355.4 253.4,395.3 249.9,439 C246.6,480.1 257.2,522.8 278.5,558 C299.1,592 330.2,620.9 366.6,637.2 C407.3,655.5 451.4,660.9 495.2,652.1 C574.8,636.1 641.2,567.8 653.4,487.2 C655.1,475.8 656.4,464.5 656.4,453 C656.5,437.3 642.6,422.3 626.4,423 C610.3,423.7 596.6,436.2 596.6,453 Z" id="Path"></path>
            </g>
        </g>
    </g>
</svg>